<?xml version="1.0" encoding="UTF-8" standalone="no" ?>
<!DOCTYPE svg PUBLIC "-//W3C//DTD SVG 1.1//EN" "http://www.w3.org/Graphics/SVG/1.1/DTD/svg11.dtd">
<svg xmlns="http://www.w3.org/2000/svg" xmlns:xlink="http://www.w3.org/1999/xlink" version="1.1" width="1080" height="1080" viewBox="0 0 1080 1080" xmlSpace="preserve">
<desc>Created with Fabric.js 5.2.4</desc>
<defs>
</defs>
<g transform="matrix(1 0 0 1 540 540)" id="28472158-09cc-4a0f-8892-2556a82f4536"  >
<rect style="stroke: none; stroke-width: 1; stroke-dasharray: none; stroke-linecap: butt; stroke-dashoffset: 0; stroke-linejoin: miter; stroke-miterlimit: 4; fill: rgb(255,255,255); fill-rule: nonzero; opacity: 1; visibility: hidden;" vector-effect="non-scaling-stroke"  x="-540" y="-540" rx="0" ry="0" width="1080" height="1080" />
</g>
<g transform="matrix(1 0 0 1 540 540)" id="09a50890-9aa4-4eda-89e3-26ee1a39fe71"  >
</g>
<g transform="matrix(3.47 0 0 3.47 540 540)" id="6e78d185-8613-4c22-8708-28beda2c0b8e"  >
<path style="stroke: rgb(0,0,0); stroke-width: 0; stroke-dasharray: none; stroke-linecap: butt; stroke-dashoffset: 0; stroke-linejoin: miter; stroke-miterlimit: 4; fill: rgb(0,0,0); fill-rule: nonzero; opacity: 1;" vectorEffect="non-scaling-stroke"  transform=" translate(-148.95, -135.5)" d="M 236 0 L 282 0 L 181 115 L 299 271 L 206.4 271 L 133.9 176.2 L 50.900000000000006 271 L 4.900000000000006 271 L 111.9 148 L -1.0999999999999943 0 L 93.80000000000001 0 L 159.3 86.6 z M 219.9 244 L 245.4 244 L 80.4 26 L 53.00000000000001 26 z" stroke-linecap="round" />
</g>
</svg>
