<?xml version="1.0" encoding="iso-8859-1"?>
<!-- Uploaded to: SVG Repo, www.svgrepo.com, Generator: SVG Repo Mixer Tools -->
<!DOCTYPE svg PUBLIC "-//W3C//DTD SVG 1.1//EN" "http://www.w3.org/Graphics/SVG/1.1/DTD/svg11.dtd">
<svg fill="#000000" version="1.1" id="Capa_1" xmlns="http://www.w3.org/2000/svg" xmlns:xlink="http://www.w3.org/1999/xlink" 
	 width="800px" height="800px" viewBox="0 0 398.476 398.477"
	 xml:space="preserve">
<g>
	<path d="M330.934,36.581c-48.775-48.774-128.137-48.774-176.912,0L33.891,156.714c-3.904,3.904-3.906,10.236,0,14.142
		l24.072,24.073c3.906,3.905,10.238,3.906,14.143,0L192.237,74.803c13.398-13.399,31.24-20.778,50.238-20.777
		s36.838,7.379,50.235,20.778c13.396,13.395,20.773,31.235,20.775,50.234c0.002,18.997-7.375,36.839-20.771,50.236l-162.901,162.9
		c-4.049,4.047-9.441,6.275-15.189,6.275c-5.746,0-11.139-2.229-15.184-6.274c-8.373-8.376-8.373-22.003-0.002-30.377
		l158.673-158.672c0.006-0.005,0.012-0.01,0.016-0.015c3.904-3.905,3.904-10.236,0-14.142c-0.151-0.152-0.307-0.297-0.467-0.437
		l-23.625-23.625c-3.905-3.905-10.235-3.905-14.143,0L61.221,269.578l0,0c-14.244,14.244-22.088,33.211-22.09,53.408
		c0,20.195,7.846,39.162,22.09,53.406c29.447,29.447,77.363,29.445,106.814-0.004L330.933,213.49
		C379.708,164.715,379.708,85.354,330.934,36.581z"/>
</g>
</svg>